# xmcd
#
# Track frame offsets: 
#        150
#        28032
#        51720
#        76340
#        97557
#        127575
#        149607
#        177302
#        197980
#        213835
#
# Disc length: 3215 seconds
#
# Revision: 6
# Processed by: cddbd v1.5.2PL0 Copyright (c) Steve Scherf et al.
# Submitted via: ExactAudioCopy v0.99pb5
#
DISCID=860c8d0a
DTITLE=Various Artist - ¡Ay, Que Ryko Latino!
DYEAR=2000
DGENRE=Salsa
TTITLE0=Truco and Zaperoko - El Cuarto De Tula
TTITLE1=¡Cubanismo! - El Paso De Encarnación
TTITLE2=Jimmy Bosch - Otra Oportunidad
TTITLE3=José Alberto 'El Canario' - Vete Y Pregona
TTITLE4=Plena Libre - Manaña Por La Manaña
TTITLE5=Jimmy Bosch - La Cacharra The Jalopy
TTITLE6=¡Cubanismo! - En Las Delicias
TTITLE7=Plena Libre - Carnaval
TTITLE8=José Alberto 'El Canario' - Enamorado De Mi País
TTITLE9=Various Artist - Somos La Fuerza Latina
EXTD=
EXTT0=
EXTT1=
EXTT2=
EXTT3=
EXTT4=
EXTT5=
EXTT6=
EXTT7=
EXTT8=
EXTT9=
PLAYORDER=
